<svg id="Слой_1" data-name="Слой 1" xmlns="http://www.w3.org/2000/svg" viewBox="0 0 158.47 39.13"><defs><style>.cls-1{fill:#f98800}.cls-2{fill:#3056fa}.cls-3{fill:#6d6d6d}</style></defs><path class="cls-1" d="M4.76 4.37h5.7l1.14 10.5 3.89-4.59L14.38 0H1.22l3.53 4.36ZM33.91 8.61h-5.5V13h5.79a6.71 6.71 0 0 1 6.69 7A6.83 6.83 0 0 1 34 26.35H22.6l-3.33 3.83a10.08 10.08 0 0 0 3.26.53h11.69a11.05 11.05 0 1 0-.31-22.1Z" transform="translate(-1.2)"/><path class="cls-2" d="M26 35.58A3.55 3.55 0 1 1 22.46 32 3.55 3.55 0 0 1 26 35.58ZM40.93 35.58A3.54 3.54 0 1 1 37.39 32a3.54 3.54 0 0 1 3.54 3.54ZM24.05 14.52a1.43 1.43 0 1 1 1.13-1.12 1.42 1.42 0 0 1-1.13 1.12ZM17 10.34 6.45 22.73a1.66 1.66 0 0 0 .17 2.32l7.44 6.58a1.66 1.66 0 0 0 2.35-.16l10.94-12.54.07-9.19a1.08 1.08 0 0 0-1.28-1.07L17 10.34Z" transform="translate(-1.2)"/><path d="M62.77 25.48v-14H67L69.55 21l2.52-9.57h4.25v14h-2.63v-11l-2.79 11h-2.73l-2.77-11v11ZM84.28 25.48v-5.9l-5.13-8.13h3.32l3.3 5.55L89 11.45h3.26l-5.15 8.15v5.88ZM93.73 21.74v-2.69H99v2.69ZM101.34 20.92l2.75-.27a3.41 3.41 0 0 0 1 2 3.07 3.07 0 0 0 2.05.65 3.15 3.15 0 0 0 2.07-.58 1.73 1.73 0 0 0 .69-1.35 1.29 1.29 0 0 0-.29-.85 2.41 2.41 0 0 0-1-.61c-.33-.11-1.09-.32-2.27-.61a7.66 7.66 0 0 1-3.2-1.3 3.62 3.62 0 0 1-1.3-2.82 3.67 3.67 0 0 1 .61-2 3.88 3.88 0 0 1 1.75-1.42 7.1 7.1 0 0 1 2.76-.48 5.94 5.94 0 0 1 4 1.15 4.06 4.06 0 0 1 1.4 3.09l-2.83.13a2.42 2.42 0 0 0-.78-1.56 2.91 2.91 0 0 0-1.8-.47 3.23 3.23 0 0 0-1.93.51 1 1 0 0 0-.45.87 1.08 1.08 0 0 0 .42.85 7.59 7.59 0 0 0 2.61.94 13.39 13.39 0 0 1 3 1 3.87 3.87 0 0 1 1.55 1.42 4.41 4.41 0 0 1-.11 4.49 4 4 0 0 1-1.89 1.57 8 8 0 0 1-3.05.51 6.07 6.07 0 0 1-4.1-1.28 5.32 5.32 0 0 1-1.66-3.58ZM116.6 25.48v-14h2.84V17H125v-5.55h2.83v14H125v-6.1h-5.55v6.13ZM131.64 18.55a9 9 0 0 1 .64-3.59 6.66 6.66 0 0 1 1.31-1.96 5.54 5.54 0 0 1 1.81-1.26 7.76 7.76 0 0 1 3-.55 6.6 6.6 0 0 1 5 1.92 7.36 7.36 0 0 1 1.86 5.35 7.35 7.35 0 0 1-1.85 5.31 6.51 6.51 0 0 1-4.93 1.92 6.61 6.61 0 0 1-5-1.91 7.24 7.24 0 0 1-1.84-5.23Zm2.92-.09a5.27 5.27 0 0 0 1.1 3.61 3.79 3.79 0 0 0 5.58 0 5.37 5.37 0 0 0 1.08-3.66 5.25 5.25 0 0 0-1.06-3.6 3.56 3.56 0 0 0-2.8-1.18 3.62 3.62 0 0 0-2.83 1.2 5.31 5.31 0 0 0-1.07 3.63ZM148.93 25.48v-14h4.54a16.47 16.47 0 0 1 3.37.21 3.69 3.69 0 0 1 2 1.38 4.34 4.34 0 0 1 .81 2.73 4.61 4.61 0 0 1-.46 2.17 3.78 3.78 0 0 1-1.2 1.38 4.07 4.07 0 0 1-1.46.67 16.64 16.64 0 0 1-2.94.2h-1.85v5.29Zm2.83-11.65v4h1.55a7.56 7.56 0 0 0 2.24-.22 1.84 1.84 0 0 0 1.21-1.78 1.84 1.84 0 0 0-.45-1.27 2 2 0 0 0-1.14-.62 14.52 14.52 0 0 0-2-.09Z" transform="translate(-1.2)"/><path class="cls-3" d="M62.77 31.23h.63v4.15l2.79-4.15h.69v5.24h-.63v-4.14l-2.79 4.14h-.69ZM69.51 36.47v-5.24h.69v2.16h2.72v-2.16h.7v5.24h-.7V34H70.2v2.47ZM77.57 36.47v-4.62h-1.73v-.62H80v.62h-1.74v4.62ZM82.19 36.47v-5.24H86v.62h-3.1v1.61h2.9v.61h-2.9v1.79h3.2v.61ZM88.52 36.47v-5.24h2a5 5 0 0 1 .79.05 1.67 1.67 0 0 1 .65.25 1.21 1.21 0 0 1 .42.5 1.58 1.58 0 0 1 .16.72 1.63 1.63 0 0 1-.42 1.13 2.05 2.05 0 0 1-1.54.46h-1.37v2.13Zm.69-2.74h1.36a1.38 1.38 0 0 0 1-.26.88.88 0 0 0 .29-.7.93.93 0 0 0-.17-.56.77.77 0 0 0-.44-.31 2.87 2.87 0 0 0-.64 0h-1.4ZM94.89 36.47v-5.24h.69v2.16h2.73v-2.16H99v5.24h-.69V34h-2.73v2.47ZM101.64 36.47v-5.24h3.79v.62h-3.1v1.61h2.9v.61h-2.9v1.79h3.22v.61ZM109.3 36.47v-4.62h-1.72v-.62h4.15v.62H110v4.62ZM113.57 34.9v-.65h2v.65ZM117.79 36.47v-5.24h1l1.24 3.71c.12.35.2.61.25.78.06-.19.16-.47.28-.84l1.26-3.65h.93v5.24h-.67v-4.38l-1.52 4.38H120L118.46 32v4.46ZM124.8 36.47l2-5.24h.75l2.14 5.24h-.79l-.61-1.58h-2.19l-.58 1.58Zm1.51-2.15h1.78l-.55-1.45c-.17-.44-.29-.8-.37-1.09a7.61 7.61 0 0 1-.28 1ZM131.73 31.23h3.39v.62h-2.7v4.62h-.69ZM136.08 36.47l2-5.24h.74l2.18 5.24h-.79l-.61-1.58h-2.2l-.58 1.58Zm1.52-2.15h1.77l-.54-1.45c-.17-.44-.29-.8-.38-1.09a6.34 6.34 0 0 1-.28 1ZM142.64 35l.66-.17a1.79 1.79 0 0 0 .4.77 1.11 1.11 0 0 0 .87.38 1.25 1.25 0 0 0 .87-.28.9.9 0 0 0 .32-.68.81.81 0 0 0-.34-.69 1.47 1.47 0 0 0-.91-.26h-.34v-.6a3.47 3.47 0 0 0 .74-.06.84.84 0 0 0 .45-.28.76.76 0 0 0 .19-.52.78.78 0 0 0-.27-.59 1 1 0 0 0-.72-.26 1.13 1.13 0 0 0-.67.2 1 1 0 0 0-.39.53 1.8 1.8 0 0 0-.11.48l-.66-.15a1.71 1.71 0 0 1 1.84-1.67 1.73 1.73 0 0 1 1.22.43 1.35 1.35 0 0 1 .45 1 1.26 1.26 0 0 1-.69 1.14 1.26 1.26 0 0 1 .67.45 1.28 1.28 0 0 1 .27.82 1.45 1.45 0 0 1-.53 1.13 2.06 2.06 0 0 1-1.39.45 1.88 1.88 0 0 1-1.93-1.57ZM148.82 31.23h.63v4.15l2.79-4.15h.7v5.24h-.63v-4.14l-2.79 4.14h-.7ZM155.56 36.47v-5.24h.7v2.16H159v-2.16h.69v5.24H159V34h-2.72v2.47Z" transform="translate(-1.2)"/></svg>